<?xml version="1.0" encoding="UTF-8" standalone="no"?>
<svg
   xmlns:dc="http://purl.org/dc/elements/1.1/"
   xmlns:cc="http://creativecommons.org/ns#"
   xmlns:rdf="http://www.w3.org/1999/02/22-rdf-syntax-ns#"
   xmlns:svg="http://www.w3.org/2000/svg"
   xmlns="http://www.w3.org/2000/svg"
   id="svg8"
   version="1.1"
   viewBox="0 0 19.501051 24.83807"
   height="24.83807mm"
   width="19.501051mm">
  <defs
     id="defs2" />
  <metadata
     id="metadata5">
    <rdf:RDF>
      <cc:Work
         rdf:about="">
        <dc:format>image/svg+xml</dc:format>
        <dc:type
           rdf:resource="http://purl.org/dc/dcmitype/StillImage" />
        <dc:title></dc:title>
      </cc:Work>
    </rdf:RDF>
  </metadata>
  <g
     transform="translate(-180.19903,-231.22269)"
     id="layer1">
    <path
       id="path21"
       d="m 187.41772,255.70626 c -1.06865,-0.46478 -1.74957,-1.75056 -1.62405,-3.06671 0.0878,-0.92056 0.0203,-1.04013 -0.8103,-1.43623 -1.08746,-0.51858 -1.44473,-0.20321 -1.22213,1.07877 0.20216,1.16422 -0.66934,2.22393 -1.82894,2.22393 -2.34257,0 -2.29523,-3.48383 0.0487,-3.58644 1.21965,-0.0534 1.29154,-0.68229 0.23607,-2.06504 -0.9456,-1.23879 -1.31855,-2.21158 -1.64549,-4.29203 -0.17547,-1.11661 0.43823,-4.13384 0.97153,-4.77642 0.20282,-0.24438 0.16419,-0.50535 -0.13884,-0.93799 -0.23091,-0.32967 -0.41984,-1.09811 -0.41984,-1.70764 0,-0.92156 0.14237,-1.22803 0.84526,-1.81947 0.68002,-0.5722 1.02363,-0.68229 1.75773,-0.56316 0.50186,0.0814 1.17707,0.39665 1.50047,0.70047 0.53723,0.5047 0.69522,0.5254 1.82973,0.23973 1.58446,-0.39898 3.97566,-0.18351 5.51367,0.49683 1.50959,0.66777 1.89611,0.39192 1.33444,-0.95235 -0.85125,-2.03733 0.54401,-4.01982 2.82912,-4.01982 1.55331,0 2.51364,0.68801 2.93818,2.10502 0.25998,0.86772 0.23158,1.16882 -0.19207,2.03632 -0.67449,1.38117 -2.16476,2.13008 -3.45231,1.73492 -1.23996,-0.38056 -1.44018,0.17989 -0.47433,1.32774 1.2916,1.53498 1.79772,3.03545 1.80921,5.36371 0.008,1.60707 -0.12451,2.4145 -0.55012,3.35377 -0.73858,1.62992 -2.48484,3.49452 -3.92625,4.19229 -1.04487,0.50581 -1.1441,0.63409 -1.00982,1.30545 0.21477,1.07386 -0.5642,2.53372 -1.61907,3.03429 -1.06337,0.5046 -1.59587,0.51053 -2.70057,0.0301 z m 0.18131,-8.47628 v -1.98437 h 2.51354 2.51355 v -1.05834 -1.05833 h -2.51355 -2.51354 v -1.05833 -1.05834 h 2.77813 2.77812 v -1.19062 -1.19063 h -4.23333 -4.23333 v 5.29167 5.29167 h 1.4552 1.45521 z"
       style="fill:#000000;stroke-width:0.26458332" />
  </g>
</svg>
