<?xml version="1.0" encoding="UTF-8" standalone="no"?>
<svg
   xmlns:dc="http://purl.org/dc/elements/1.1/"
   xmlns:cc="http://creativecommons.org/ns#"
   xmlns:rdf="http://www.w3.org/1999/02/22-rdf-syntax-ns#"
   xmlns:svg="http://www.w3.org/2000/svg"
   xmlns="http://www.w3.org/2000/svg"
   id="svg8"
   version="1.1"
   viewBox="0 0 99.691628 57.57642"
   height="57.57642mm"
   width="99.691628mm">
  <defs
     id="defs2" />
  <metadata
     id="metadata5">
    <rdf:RDF>
      <cc:Work
         rdf:about="">
        <dc:format>image/svg+xml</dc:format>
        <dc:type
           rdf:resource="http://purl.org/dc/dcmitype/StillImage" />
        <dc:title></dc:title>
      </cc:Work>
    </rdf:RDF>
  </metadata>
  <g
     transform="translate(-64.142142,-126.67582)"
     id="layer1">
    <path
       id="path21"
       d="m 81.596688,183.78432 c -3.36288,-1.16146 -5.36239,-5.13319 -4.20889,-8.36036 l 0.37829,-1.05833 -2.37746,-1.25677 c -1.30759,-0.69122 -2.40118,-1.25677 -2.4302,-1.25677 -0.029,0 -0.44512,0.48825 -0.92468,1.08501 l -0.87194,1.08501 0.47871,1.40834 c 0.60811,1.78902 0.27303,3.14238 -1.06997,4.32155 -1.2085,1.06108 -2.47039,1.28625 -3.9792,0.71003 -1.46404,-0.55912 -2.29214,-1.67895 -2.42992,-3.28593 -0.21187,-2.47104 1.33685,-4.11834 3.90797,-4.15674 1.51652,-0.0226 1.59123,-0.0579 2.46445,-1.16134 l 0.90051,-1.13798 -1.69172,-2.01366 c -3.14609,-3.74479 -4.67607,-7.87475 -4.66666,-12.597 0.007,-3.37644 0.58667,-5.84384 2.04557,-8.70296 l 1.14765,-2.24915 -0.63305,-0.41479 c -1.01972,-0.66815 -1.80166,-2.45246 -1.80166,-4.11122 0,-1.97244 0.81655,-3.49687 2.41657,-4.51158 2.21659,-1.40572 5.34849,-0.93706 7.02102,1.05062 0.36818,0.43756 0.71333,0.92726 0.76698,1.08822 0.0639,0.19168 0.82571,0.0387 2.20812,-0.44327 1.93149,-0.67348 2.648702,-1.11405 6.159642,-1.11567 3.46265,-0.002 3.830078,0.44538 5.740508,1.08624 1.16417,0.3905 2.79916,1.12099 3.63332,1.6233 l 1.51665,0.91328 0.79883,-1.0086 0.79884,-1.00861 -0.79413,-1.50967 c -1.78755,-3.39819 -0.63827,-7.44838 2.61618,-9.21967 3.550862,-1.93262 7.709012,-0.65593 9.449392,2.90128 1.8574,3.7964 0.0312,8.19892 -3.94934,9.52106 -1.53091,0.50848 -3.62298,0.4045 -4.924462,-0.24476 -0.49324,-0.24606 -0.91657,-0.4171 -0.94072,-0.38009 -0.0242,0.037 -0.38021,0.5191 -0.79123,1.07131 l -0.74732,1.00403 0.87731,0.90514 c 0.8648,0.89225 0.91343,0.90622 3.413862,0.98035 l 2.53657,0.0752 0.13229,8.20208 c 0.12243,7.59053 0.17175,8.26907 0.66146,9.10047 0.9352,1.58773 1.77215,2.01203 3.96875,2.01203 2.1966,0 3.03355,-0.4243 3.96875,-2.01203 0.48971,-0.8314 0.53903,-1.50994 0.66146,-9.10047 l 0.13229,-8.20208 3.52197,-0.0739 3.52196,-0.0739 -0.0949,8.80519 c -0.10519,9.7594 -0.19366,10.36098 -1.88452,12.81546 -1.81942,2.64107 -4.76182,4.04791 -8.90097,4.2558 -3.17736,0.15957 -5.21386,-0.21038 -7.47448,-1.35784 -0.98226,-0.49858 -1.78593,-0.81561 -1.78593,-0.70449 0,0.11111 -0.719932,0.98769 -1.599842,1.94796 -1.7887,1.95205 -4.49087,3.86484 -6.7928,4.80844 -1.3161,0.53949 -1.51617,0.71255 -1.4355,1.24169 0.30754,2.01726 0.1268,4.36342 -0.41566,5.39538 -0.81667,1.55365 -2.45929,2.92651 -4.07596,3.40661 -1.7616,0.52314 -2.41514,0.50876 -4.15276,-0.0914 z m -0.51759,-19.40671 0.0724,-4.56406 5.88698,-0.0712 5.88698,-0.0712 v -2.77306 -2.77306 h -5.96383 -5.96382 l 0.0768,-2.18282 0.0768,-2.18281 6.54844,-0.0708 6.54843,-0.0708 v -3.03809 -3.03809 h -10.05416 -10.05417 v 12.7 12.7 h 3.43334 3.43333 z m 41.278682,-8.33438 0.0687,-12.63385 h 10.18645 10.18646 v 2.91042 2.91041 l -6.68073,0.0707 -6.68073,0.0707 v 1.97983 1.97984 h 6.09468 6.09467 l -0.0754,2.71197 -0.0754,2.71198 -6.01927,0.0711 -6.01928,0.0711 v 1.97941 1.97941 h 6.74688 6.74687 v 2.91041 2.91042 h -10.32131 -10.32132 z m 22.225,0 0.0687,-12.63385 3.50572,-0.0738 3.50573,-0.0738 v 9.66497 9.66497 h 6.08542 6.08542 v 3.04271 3.04271 h -9.65986 -9.65986 z"
       style="fill:#656565;stroke-width:0.26458332" />
  </g>
</svg>
