<?xml version="1.0" encoding="UTF-8" standalone="no"?>
<!-- Created with Inkscape (http://www.inkscape.org/) -->

<svg
   xmlns:dc="http://purl.org/dc/elements/1.1/"
   xmlns:cc="http://creativecommons.org/ns#"
   xmlns:rdf="http://www.w3.org/1999/02/22-rdf-syntax-ns#"
   xmlns:svg="http://www.w3.org/2000/svg"
   xmlns="http://www.w3.org/2000/svg"
   xmlns:sodipodi="http://sodipodi.sourceforge.net/DTD/sodipodi-0.dtd"
   xmlns:inkscape="http://www.inkscape.org/namespaces/inkscape"
   width="69.301369mm"
   height="59.887829mm"
   viewBox="0 0 69.301369 59.887829"
   version="1.1"
   id="svg8"
   inkscape:version="0.92.1 r15371"
   sodipodi:docname="search.svg">
  <defs
     id="defs2" />
  <sodipodi:namedview
     id="base"
     pagecolor="#ffffff"
     bordercolor="#666666"
     borderopacity="1.0"
     inkscape:pageopacity="0.0"
     inkscape:pageshadow="2"
     inkscape:zoom="0.98994949"
     inkscape:cx="429.20165"
     inkscape:cy="171.16633"
     inkscape:document-units="mm"
     inkscape:current-layer="layer1"
     showgrid="false"
     fit-margin-top="0"
     fit-margin-left="0"
     fit-margin-right="0"
     fit-margin-bottom="0"
     inkscape:window-width="1920"
     inkscape:window-height="1018"
     inkscape:window-x="-8"
     inkscape:window-y="-8"
     inkscape:window-maximized="1" />
  <metadata
     id="metadata5">
    <rdf:RDF>
      <cc:Work
         rdf:about="">
        <dc:format>image/svg+xml</dc:format>
        <dc:type
           rdf:resource="http://purl.org/dc/dcmitype/StillImage" />
        <dc:title></dc:title>
      </cc:Work>
    </rdf:RDF>
  </metadata>
  <g
     inkscape:label="Layer 1"
     inkscape:groupmode="layer"
     id="layer1"
     transform="translate(-111.97613,-214.67876)">
    <path
       style="fill:#000000;stroke-width:0.26458332"
       d="m 173.85762,274.46014 c -1.4398,-0.28412 -2.51064,-0.9469 -5.67026,-3.50948 -10.76117,-8.72775 -22.76696,-18.27616 -23.0115,-18.30142 -0.15957,-0.0165 -1.42121,0.53725 -2.80366,1.23053 -3.73883,1.87499 -6.15511,2.39732 -10.42678,2.25395 -3.99929,-0.13422 -6.29609,-0.76866 -9.6633,-2.66927 -2.29878,-1.29754 -5.53555,-4.36262 -7.03941,-6.66603 -1.26562,-1.9385 -2.62057,-5.45758 -3.04935,-7.9198 -0.44288,-2.54323 -0.1831,-6.94135 0.54802,-9.27811 2.17178,-6.94129 7.16521,-11.93477 14.15269,-14.15284 2.7977,-0.88809 7.48279,-1.02718 10.47667,-0.31104 7.85477,1.87887 13.57564,7.47704 15.59207,15.25763 0.635,2.4502 0.75088,6.80202 0.24306,9.12812 -0.17473,0.80037 -0.33231,1.75287 -0.35016,2.11667 -0.0279,0.56808 1.78723,2.11812 12.85797,10.98021 7.08975,5.67531 13.26624,10.67593 13.72555,11.1125 2.4172,2.29749 2.45671,6.60601 0.0821,8.95628 -1.48304,1.46786 -3.69628,2.16035 -5.66373,1.7721 z m 3.62964,-2.87011 c 1.66564,-1.18605 2.13925,-3.62588 1.05236,-5.42131 l -0.60696,-1.00261 -2.36825,2.96306 c -1.30254,1.62968 -2.46423,3.12402 -2.58154,3.32075 -0.59349,0.99535 3.14022,1.11149 4.50439,0.14011 z m -3.91707,-4.51776 c 1.32225,-1.65521 2.40409,-3.08396 2.40408,-3.17499 0,-0.1955 -1.68832,-1.57123 -2.06022,-1.67878 -0.2406,-0.0696 -5.0835,5.75142 -5.08353,6.11024 -2e-5,0.24007 1.95187,1.87439 2.15999,1.80856 0.0966,-0.0306 1.25744,-1.40981 2.57968,-3.06503 z m -3.95591,-3.45279 c 1.95647,-2.45142 2.34789,-3.08541 2.07109,-3.35456 -0.5715,-0.55571 -20.92801,-16.79311 -21.34754,-17.02789 -0.33829,-0.18932 -0.30896,-0.48364 0.21577,-2.16531 0.81754,-2.62006 1.0141,-6.7818 0.44807,-9.48684 -0.23282,-1.11263 -0.95691,-3.08857 -1.64829,-4.49791 -1.03166,-2.103 -1.60723,-2.88521 -3.52391,-4.78905 -3.42576,-3.40282 -7.14139,-5.07896 -12.06624,-5.44312 -5.2053,-0.38491 -11.17467,2.0325 -14.68765,5.94802 -5.59351,6.23448 -6.52251,15.06809 -2.33547,22.20743 1.42364,2.42746 4.75038,5.57392 7.27987,6.88539 6.49871,3.36936 14.46987,2.73575 20.00821,-1.59042 l 0.99454,-0.77686 10.91171,8.73477 c 6.00145,4.80413 10.99176,8.65474 11.08959,8.55691 0.0978,-0.0978 1.26344,-1.53808 2.59025,-3.20056 z m -39.47715,-11.65359 c -6.64262,-1.2083 -12.07583,-6.20898 -13.55257,-12.47368 -0.5136,-2.17878 -0.51612,-6.04047 -0.005,-8.05018 1.18307,-4.65418 4.63523,-8.90247 8.85957,-10.90276 1.23692,-0.58571 2.83097,-1.20341 3.54232,-1.37268 1.83521,-0.43669 6.08339,-0.37254 7.95792,0.12016 6.16563,1.62058 10.85718,6.59625 12.1581,12.8944 0.6546,3.16913 0.44074,6.11284 -0.65731,9.04764 -0.46128,1.23288 -0.69833,1.50487 -1.7786,2.04084 -1.35583,0.67267 -2.43702,2.31799 -2.43702,3.70858 0,1.28107 -3.77055,3.68494 -7.23336,4.61153 -1.77342,0.47454 -5.26073,0.66593 -6.85379,0.37615 z m 7.47819,-2.86971 c 0.80346,-0.31388 2.10241,-0.95928 2.88656,-1.43422 1.25852,-0.76226 1.4621,-1.00928 1.73584,-2.10623 0.43192,-1.7308 1.50317,-3.23698 2.8734,-4.03998 1.02663,-0.60165 1.21378,-0.86178 1.59342,-2.2148 0.60823,-2.16772 0.56667,-5.8956 -0.0894,-8.01893 -1.16577,-3.77295 -4.06169,-7.16193 -7.53715,-8.82045 -7.7848,-3.71496 -17.01725,0.0516 -19.96019,8.14325 -0.82803,2.27666 -1.02881,5.85367 -0.45598,8.12381 1.302,5.15993 5.29004,9.32763 10.24635,10.70795 2.11761,0.58974 6.79424,0.40692 8.70715,-0.3404 z"
       id="path21"
       inkscape:connector-curvature="0" />
  </g>
</svg>
