<?xml version="1.0" encoding="UTF-8" standalone="no"?>
<svg
   xmlns:dc="http://purl.org/dc/elements/1.1/"
   xmlns:cc="http://creativecommons.org/ns#"
   xmlns:rdf="http://www.w3.org/1999/02/22-rdf-syntax-ns#"
   xmlns:svg="http://www.w3.org/2000/svg"
   xmlns="http://www.w3.org/2000/svg"
   id="svg8"
   version="1.1"
   viewBox="0 0 74.069786 70.973709"
   height="70.973709mm"
   width="74.069786mm">
  <defs
     id="defs2" />
  <metadata
     id="metadata5">
    <rdf:RDF>
      <cc:Work
         rdf:about="">
        <dc:format>image/svg+xml</dc:format>
        <dc:type
           rdf:resource="http://purl.org/dc/dcmitype/StillImage" />
        <dc:title></dc:title>
      </cc:Work>
    </rdf:RDF>
  </metadata>
  <g
     transform="translate(-102.77174,-208.26711)"
     id="layer1">
    <path
       id="path34"
       d="m 163.29539,278.98165 c -1.0107,-0.37126 -7.17226,-6.12448 -14.39313,-13.43925 l -3.47886,-3.5241 -0.17589,-1.50284 c -0.22479,-1.92065 -0.58673,-2.23815 -2.14491,-1.88159 l -1.1857,0.27133 -2.24237,-2.44285 c -1.23331,-1.34356 -2.24238,-2.51869 -2.24238,-2.61139 0,-0.0927 0.89297,-1.01678 1.98438,-2.05351 1.0914,-1.03673 1.98437,-1.97711 1.98437,-2.08973 0,-0.11262 -0.6984,-0.8098 -1.552,-1.54929 l -1.552,-1.34452 -6.22486,6.90523 -6.22485,6.90522 1.02998,3.06583 c 0.56649,1.68621 1.02998,3.23444 1.02998,3.44051 0,0.30238 -4.66259,5.66442 -7.91997,9.10809 l -0.68743,0.72674 -4.34362,-0.92944 c -2.38898,-0.51119 -4.36371,-0.95728 -4.38827,-0.99132 -0.0246,-0.034 -0.17453,-0.44694 -0.33328,-0.91757 -0.28519,-0.84547 -0.25408,-0.89374 2.60655,-4.04405 1.59236,-1.7536 2.89519,-3.28814 2.89519,-3.4101 0,-0.21139 -2.25618,-2.40579 -2.47353,-2.40579 -0.0573,0 -1.42218,1.46868 -3.03317,3.26374 -2.70422,3.01318 -2.99054,3.25471 -3.72976,3.14622 -0.44038,-0.0646 -0.91099,-0.2534 -1.0458,-0.41947 -0.27772,-0.34212 -2.68232,-7.71504 -2.68232,-8.22447 0,-0.28547 3.22666,-3.99123 7.37126,-8.46578 l 1.21068,-1.30706 3.43804,0.71578 3.43804,0.71578 0.56688,-0.59935 c 0.31178,-0.32964 2.80753,-3.09966 5.5461,-6.1556 2.73857,-3.05593 5.3455,-5.95586 5.79317,-6.44428 l 0.81395,-0.88803 -6.47331,-6.30461 -6.47332,-6.30462 -2.41376,-0.45462 -2.41376,-0.45462 -2.4434,-4.89528 -2.44339,-4.89528 2.186,-2.19741 2.186,-2.19742 4.91114,2.54415 c 2.70112,1.39929 4.94872,2.57314 4.99466,2.60856 0.046,0.0354 0.23547,1.09206 0.42118,2.34808 0.28181,1.90603 0.46488,2.41708 1.10709,3.09055 1.43039,1.49999 12.01717,11.21619 12.14983,11.1507 0.42902,-0.21179 8.06563,-8.86225 8.06163,-9.13191 -0.003,-0.18047 -0.4194,-1.62674 -0.92604,-3.21395 -0.50665,-1.58721 -0.92117,-3.04111 -0.92117,-3.2309 0,-0.18979 1.92164,-2.47222 4.27032,-5.07206 l 4.27032,-4.72699 3.60103,0.75969 c 5.47211,1.15442 5.15516,1.03069 5.42838,2.11907 0.23845,0.94989 0.22274,0.9743 -2.70851,4.20684 l -2.94834,3.25141 1.25329,1.12388 c 0.68931,0.61814 1.33592,1.12922 1.43691,1.13574 0.10099,0.007 1.46677,-1.41689 3.03506,-3.16314 1.56829,-1.74625 3.03347,-3.17338 3.25596,-3.17139 1.4055,0.0126 1.53039,0.1984 2.90529,4.32364 0.73463,2.2042 1.3357,4.15517 1.3357,4.3355 0,0.24763 -5.11517,6.10819 -8.3029,9.51282 -0.22847,0.24401 -1.08131,0.14313 -3.73564,-0.44188 -2.61273,-0.57584 -3.50921,-0.68365 -3.7292,-0.44849 -0.15929,0.17027 -2.0556,2.26668 -4.21403,4.65867 l -3.92441,4.34908 1.70049,1.53355 c 0.93526,0.84345 1.82299,1.5355 1.97271,1.53789 0.14973,0.002 1.03089,-0.76111 1.95815,-1.69668 l 1.68592,-1.70104 2.0468,1.7397 c 1.97115,1.67541 2.05152,1.78882 2.17447,3.06838 0.15178,1.57961 0.63639,2.03358 2.17083,2.03358 1.06544,0 1.19187,0.1132 9.97315,8.92969 9.61777,9.65633 9.70873,9.77464 9.38271,12.20389 -0.76754,5.71907 -9.00109,12.15142 -13.45831,10.51414 z m 4.51329,-2.80449 c 2.88382,-1.36427 5.97299,-4.77198 6.6504,-7.33616 0.23411,-0.88619 0.217,-1.29313 -0.0835,-1.98437 -0.21439,-0.49327 -3.91025,-4.37823 -8.5404,-8.9774 -7.31847,-7.26949 -8.27188,-8.12692 -9.22079,-8.2925 -0.58208,-0.10158 -1.39708,-0.38212 -1.81111,-0.62343 -0.87929,-0.51248 -1.76076,-2.0845 -1.76077,-3.14018 0,-0.52789 -0.2665,-0.95078 -0.93556,-1.48463 -0.51455,-0.41056 -1.04091,-0.70822 -1.16967,-0.66146 -0.12876,0.0468 -2.56342,2.38163 -5.41035,5.1886 l -5.17623,5.10358 1.08794,1.18028 c 1.02481,1.11178 1.16925,1.18027 2.48915,1.18027 1.11798,0 1.5642,0.13714 2.20752,0.67847 0.80077,0.6738 1.34665,2.01022 1.34948,3.30377 0.001,0.53237 1.69775,2.36283 8.0314,8.66511 l 8.02992,7.99015 1.29664,-2.1e-4 c 0.88966,-1.4e-4 1.82058,-0.24807 2.96588,-0.78989 z m -45.63921,-5.30288 c 2.17583,-2.40615 3.35643,-3.9183 3.35643,-4.29899 0,-0.32298 -0.4307,-1.8798 -0.95711,-3.4596 -0.94518,-2.83657 -0.95095,-2.88021 -0.46302,-3.50367 1.16217,-1.48498 26.9836,-29.97487 27.28937,-30.10953 0.18531,-0.0816 1.72365,0.15143 3.41852,0.51787 1.69486,0.36644 3.23524,0.63167 3.42306,0.58939 0.63591,-0.14313 6.97668,-7.41895 6.97668,-8.00549 0,-1.08624 -1.4869,-5.03596 -1.89583,-5.03596 -0.21587,0 -1.67328,1.40264 -3.23867,3.11697 l -2.84617,3.11696 -1.8531,-1.66175 c -1.01921,-0.91397 -2.2892,-2.03644 -2.82222,-2.49439 l -0.96912,-0.83264 0.5287,-0.62235 c 0.29079,-0.3423 1.5705,-1.76911 2.84381,-3.1707 1.27331,-1.40159 2.3151,-2.72562 2.3151,-2.94229 0,-0.59977 -5.47775,-1.72149 -5.9514,-1.21871 -3.47556,3.68925 -6.48401,7.29151 -6.48401,7.76381 0,0.31763 0.4216,1.90892 0.93689,3.53622 l 0.93689,2.95873 -7.08845,7.84926 c -3.89866,4.3171 -10.10122,11.19088 -13.78349,15.27508 -3.68226,4.08419 -6.86531,7.46394 -7.07344,7.51055 -0.20813,0.0466 -1.75087,-0.21702 -3.42833,-0.58584 -1.67745,-0.36882 -3.19737,-0.60586 -3.37759,-0.52674 -0.53113,0.23314 -6.66885,7.20441 -6.77288,7.69269 -0.14127,0.66301 1.29596,5.32096 1.68825,5.4715 0.19302,0.0741 1.54967,-1.22365 3.16425,-3.02679 1.5545,-1.73604 2.96551,-3.1527 3.13557,-3.14812 0.17006,0.005 1.48987,1.11274 2.9329,2.4626 l 2.6237,2.45427 -2.95443,3.2521 c -1.62493,1.78865 -2.95443,3.34743 -2.95443,3.46396 0,0.11654 0.92274,0.41001 2.05052,0.65216 1.12779,0.24216 2.16959,0.48284 2.31511,0.53484 1.20694,0.43133 1.62865,0.12844 4.97794,-3.5754 z m 22.21963,-24.01417 1.24851,-1.26758 -0.99387,-0.9209 c -0.54664,-0.5065 -1.31678,-1.20276 -1.71144,-1.54725 l -0.71757,-0.62633 -1.18159,1.29346 -1.1816,1.29346 1.494,1.52135 c 0.8217,0.83675 1.56174,1.52136 1.64453,1.52136 0.0828,0 0.71235,-0.57041 1.39903,-1.26757 z m -10.82419,-10.11028 c 0.52625,-0.5825 0.95683,-1.15473 0.95683,-1.27162 0,-0.11689 -2.92735,-2.93388 -6.50521,-6.25998 -3.57786,-3.3261 -6.60192,-6.30184 -6.72012,-6.61275 -0.11821,-0.31091 -0.30121,-1.37096 -0.40666,-2.35568 l -0.19173,-1.79038 -3.804,-1.89665 -3.80399,-1.89665 -1.04091,1.05422 -1.0409,1.05421 1.90103,3.70083 1.90103,3.70083 2.15457,0.40919 2.15456,0.40918 6.57669,6.39752 c 3.61717,3.51864 6.65212,6.40186 6.74433,6.40717 0.0922,0.005 0.59822,-0.46693 1.12448,-1.04944 z"
       style="fill:#000000;stroke-width:0.26458332" />
  </g>
</svg>
