<?xml version="1.0" encoding="UTF-8" standalone="no"?>
<svg
   xmlns:dc="http://purl.org/dc/elements/1.1/"
   xmlns:cc="http://creativecommons.org/ns#"
   xmlns:rdf="http://www.w3.org/1999/02/22-rdf-syntax-ns#"
   xmlns:svg="http://www.w3.org/2000/svg"
   xmlns="http://www.w3.org/2000/svg"
   id="svg8"
   version="1.1"
   viewBox="0 0 33.252716 33.338039"
   height="33.338039mm"
   width="33.252716mm">
  <defs
     id="defs2" />
  <metadata
     id="metadata5">
    <rdf:RDF>
      <cc:Work
         rdf:about="">
        <dc:format>image/svg+xml</dc:format>
        <dc:type
           rdf:resource="http://purl.org/dc/dcmitype/StillImage" />
        <dc:title></dc:title>
      </cc:Work>
    </rdf:RDF>
  </metadata>
  <g
     transform="translate(-159.15481,-226.17359)"
     id="layer1">
    <path
       id="path21"
       d="m 173.55131,259.37793 c -6.05928,-0.8105 -11.10061,-4.76343 -13.30058,-10.42904 -1.32895,-3.42248 -1.46031,-7.9057 -0.33358,-11.38565 1.64515,-5.08116 6.02028,-9.27809 11.34386,-10.88182 2.52797,-0.76155 7.10242,-0.6521 9.65729,0.23108 2.71974,0.94018 4.27732,1.86353 6.23898,3.69857 2.16374,2.02407 3.46031,4.00759 4.45033,6.80819 0.71144,2.01257 0.79922,2.59453 0.79992,5.30335 8e-4,3.47856 -0.39424,5.14244 -1.91642,8.06979 -1.21356,2.33384 -4.31509,5.49674 -6.5301,6.65932 -3.1769,1.66743 -7.02332,2.37917 -10.4097,1.92621 z m 9.13455,-12.65517 5.84074,-4.86338 -0.79748,-1.95803 c -0.71082,-1.74527 -0.84387,-1.91862 -1.22446,-1.59532 -8.58886,7.29597 -10.68422,8.92078 -11.08342,8.5944 -0.22965,-0.18775 -2.74309,-2.27657 -5.58544,-4.64182 l -5.1679,-4.30045 -0.7529,1.8973 c -0.72545,1.82812 -0.73549,1.9145 -0.27532,2.36925 0.26267,0.25957 3.09695,2.66557 6.29841,5.34667 5.60635,4.69511 5.84084,4.85889 6.36393,4.44475 0.2987,-0.23649 3.17143,-2.6185 6.38384,-5.29337 z"
       style="fill:#000000;stroke-width:0.26458335" />
  </g>
</svg>
