<?xml version="1.0" encoding="UTF-8" standalone="no"?>
<svg
   xmlns:dc="http://purl.org/dc/elements/1.1/"
   xmlns:cc="http://creativecommons.org/ns#"
   xmlns:rdf="http://www.w3.org/1999/02/22-rdf-syntax-ns#"
   xmlns:svg="http://www.w3.org/2000/svg"
   xmlns="http://www.w3.org/2000/svg"
   id="svg8"
   version="1.1"
   viewBox="0 0 33.001614 32.948845"
   height="32.948845mm"
   width="33.001614mm">
  <defs
     id="defs2" />
  <metadata
     id="metadata5">
    <rdf:RDF>
      <cc:Work
         rdf:about="">
        <dc:format>image/svg+xml</dc:format>
        <dc:type
           rdf:resource="http://purl.org/dc/dcmitype/StillImage" />
        <dc:title></dc:title>
      </cc:Work>
    </rdf:RDF>
  </metadata>
  <g
     transform="translate(-57.693206,-150.39795)"
     id="layer1">
    <path
       id="path21"
       d="m 70.058596,182.96988 c -1.88038,-0.4559 -4.70373,-1.88601 -6.36429,-3.2237 -2.61072,-2.1031 -4.74466,-5.42989 -5.59981,-8.73005 -0.52898,-2.04138 -0.53618,-6.09915 -0.0145,-8.15154 1.37253,-5.3995 5.4649,-9.78666 10.90256,-11.68793 2.796,-0.97761 7.17155,-1.043 9.99554,-0.14936 6.58919,2.08511 11.27093,8.03507 11.68696,14.85281 0.47875,7.84549 -4.86709,15.17657 -12.47015,17.10108 -1.94448,0.4922 -6.08333,0.48644 -8.13634,-0.0113 z m 7.1122,-4.015 c 1.06679,-0.39672 1.93962,-0.80159 1.93962,-0.89972 0,-0.0981 -1.97537,-2.54173 -4.38971,-5.43025 -2.41435,-2.88851 -4.44792,-5.39226 -4.51905,-5.56388 -0.0711,-0.17163 1.91932,-2.76599 4.42324,-5.76527 2.50391,-2.99927 4.47705,-5.52874 4.38474,-5.62105 -0.3641,-0.3641 -3.99435,-1.64086 -4.14971,-1.45945 -0.091,0.10627 -2.34758,2.8126 -5.01457,6.01406 -2.667,3.20145 -5.01235,6.01454 -5.21189,6.25129 -0.32022,0.37994 0.26416,1.17953 4.97931,6.81302 2.93817,3.51041 5.40428,6.38256 5.48025,6.38256 0.076,0 1.01097,-0.32459 2.07777,-0.72131 z"
       style="fill:#656565;stroke-width:0.26458335" />
  </g>
</svg>
