<?xml version="1.0" encoding="UTF-8" standalone="no"?>
<svg
   xmlns:dc="http://purl.org/dc/elements/1.1/"
   xmlns:cc="http://creativecommons.org/ns#"
   xmlns:rdf="http://www.w3.org/1999/02/22-rdf-syntax-ns#"
   xmlns:svg="http://www.w3.org/2000/svg"
   xmlns="http://www.w3.org/2000/svg"
   id="svg8"
   version="1.1"
   viewBox="0 0 33.030109 32.946972"
   height="32.946972mm"
   width="33.030109mm">
  <defs
     id="defs2" />
  <metadata
     id="metadata5">
    <rdf:RDF>
      <cc:Work
         rdf:about="">
        <dc:format>image/svg+xml</dc:format>
        <dc:type
           rdf:resource="http://purl.org/dc/dcmitype/StillImage" />
        <dc:title></dc:title>
      </cc:Work>
    </rdf:RDF>
  </metadata>
  <g
     transform="translate(-156.64991,-235.05676)"
     id="layer1">
    <path
       id="path21"
       d="m 169.05656,267.62386 c -5.92688,-1.54967 -10.78257,-6.70468 -12.06983,-12.81386 -1.71795,-8.15316 3.29506,-16.55648 11.40837,-19.12389 2.82399,-0.89364 7.19954,-0.82825 9.99554,0.14936 5.43766,1.90127 9.53004,6.28843 10.90257,11.68793 0.52171,2.05239 0.5145,6.11016 -0.0145,8.15154 -1.50227,5.79748 -6.37197,10.61923 -12.08529,11.96629 -2.08067,0.49058 -6.22805,0.48172 -8.13688,-0.0174 z m 8.70389,-9.67142 c 4.71515,-5.63349 5.29953,-6.43308 4.97931,-6.81302 -0.19954,-0.23675 -2.54489,-3.04984 -5.21189,-6.25129 -2.66699,-3.20146 -4.92355,-5.90779 -5.01457,-6.01406 -0.15536,-0.18141 -3.78561,1.09535 -4.14971,1.45945 -0.0923,0.0923 1.88083,2.62178 4.38475,5.62105 2.50391,2.99928 4.49437,5.59364 4.42324,5.76527 -0.0711,0.17162 -2.10471,2.67537 -4.51906,5.56388 -2.41434,2.88852 -4.38971,5.33278 -4.38971,5.4317 0,0.17782 3.29984,1.53698 3.8637,1.59141 0.1605,0.0155 2.69578,-2.84398 5.63394,-6.35439 z"
       style="fill:#656565;stroke-width:0.26458335" />
  </g>
</svg>
